<svg xmlns="http://www.w3.org/2000/svg" width="1128" height="191" viewBox="0 0 1128 191">
  <defs>
    <linearGradient id="bg" x1="0" y1="0" x2="1128" y2="191" gradientUnits="userSpaceOnUse">
      <stop offset="0%" stop-color="#1a1d1e"/>
      <stop offset="100%" stop-color="#232829"/>
    </linearGradient>
    <radialGradient id="glow" cx="0.55" cy="0.5" r="0.5">
      <stop offset="0%" stop-color="#00b894" stop-opacity="0.06"/>
      <stop offset="100%" stop-color="#00b894" stop-opacity="0"/>
    </radialGradient>
  </defs>

  <!-- Background -->
  <rect width="1128" height="191" fill="url(#bg)"/>
  <rect width="1128" height="191" fill="url(#glow)"/>

  <!-- Headline — shifted right to clear the company logo -->
  <text x="270" y="72" fill="#ffffff" font-family="Inter, -apple-system, Arial, sans-serif" font-weight="700" font-size="34" letter-spacing="-0.5">Sales data you</text>
  <text x="270" y="112" fill="#ffffff" font-family="Inter, -apple-system, Arial, sans-serif" font-weight="700" font-size="34" letter-spacing="-0.5">actually trust</text>

  <!-- Teal accent bar -->
  <rect x="270" y="124" width="55" height="3" rx="1.5" fill="#00b894"/>

  <!-- ===== PIPELINE ===== -->

  <!-- Step 1: Discover (cx=640) -->
  <circle cx="640" cy="68" r="26" fill="#1e2324" stroke="#00b894" stroke-opacity="0.5" stroke-width="1.5"/>
  <circle cx="636" cy="63" r="8" fill="none" stroke="#00b894" stroke-width="1.8"/>
  <line x1="642" y1="69" x2="648" y2="75" stroke="#00b894" stroke-width="1.8" stroke-linecap="round"/>
  <text x="640" y="110" fill="#00b894" font-family="Inter, -apple-system, Arial, sans-serif" font-weight="700" font-size="10" text-anchor="middle" letter-spacing="1">01</text>
  <text x="640" y="130" fill="#ffffff" font-family="Inter, -apple-system, Arial, sans-serif" font-weight="600" font-size="14" text-anchor="middle">Discover</text>

  <!-- Connector 1-2 -->
  <line x1="672" y1="68" x2="738" y2="68" stroke="#00b894" stroke-opacity="0.4" stroke-width="1.5" stroke-dasharray="5 3"/>
  <polygon points="738,64 747,68 738,72" fill="#00b894" fill-opacity="0.4"/>

  <!-- Step 2: Verify (cx=775) -->
  <circle cx="775" cy="68" r="26" fill="#1e2324" stroke="#00b894" stroke-opacity="0.5" stroke-width="1.5"/>
  <path d="M775,54 L785,58 V67 C785,74 775,78 775,78 C775,78 765,74 765,67 V58 Z" fill="none" stroke="#00b894" stroke-width="1.8" stroke-linejoin="round"/>
  <polyline points="771,66 774,69 780,62" fill="none" stroke="#00b894" stroke-width="1.8" stroke-linecap="round" stroke-linejoin="round"/>
  <text x="775" y="110" fill="#00b894" font-family="Inter, -apple-system, Arial, sans-serif" font-weight="700" font-size="10" text-anchor="middle" letter-spacing="1">02</text>
  <text x="775" y="130" fill="#ffffff" font-family="Inter, -apple-system, Arial, sans-serif" font-weight="600" font-size="14" text-anchor="middle">Verify</text>

  <!-- Connector 2-3 -->
  <line x1="807" y1="68" x2="873" y2="68" stroke="#00b894" stroke-opacity="0.4" stroke-width="1.5" stroke-dasharray="5 3"/>
  <polygon points="873,64 882,68 873,72" fill="#00b894" fill-opacity="0.4"/>

  <!-- Step 3: Enrich (cx=910) -->
  <circle cx="910" cy="68" r="26" fill="#1e2324" stroke="#00b894" stroke-opacity="0.5" stroke-width="1.5"/>
  <circle cx="905" cy="60" r="5.5" fill="none" stroke="#00b894" stroke-width="1.8"/>
  <path d="M896,79 C896,73 900,71 905,71 C910,71 914,73 914,79" fill="none" stroke="#00b894" stroke-width="1.8" stroke-linecap="round"/>
  <line x1="921" y1="62" x2="921" y2="72" stroke="#00b894" stroke-width="1.8" stroke-linecap="round"/>
  <line x1="916" y1="67" x2="926" y2="67" stroke="#00b894" stroke-width="1.8" stroke-linecap="round"/>
  <text x="910" y="110" fill="#00b894" font-family="Inter, -apple-system, Arial, sans-serif" font-weight="700" font-size="10" text-anchor="middle" letter-spacing="1">03</text>
  <text x="910" y="130" fill="#ffffff" font-family="Inter, -apple-system, Arial, sans-serif" font-weight="600" font-size="14" text-anchor="middle">Enrich</text>

  <!-- Connector 3-4 -->
  <line x1="942" y1="68" x2="1008" y2="68" stroke="#00b894" stroke-opacity="0.4" stroke-width="1.5" stroke-dasharray="5 3"/>
  <polygon points="1008,64 1017,68 1008,72" fill="#00b894" fill-opacity="0.4"/>

  <!-- Step 4: Deliver (cx=1045) -->
  <circle cx="1045" cy="68" r="26" fill="#1e2324" stroke="#00b894" stroke-opacity="0.5" stroke-width="1.5"/>
  <polyline points="1034,78 1040,70 1046,74 1056,59" fill="none" stroke="#00b894" stroke-width="1.8" stroke-linecap="round" stroke-linejoin="round"/>
  <polyline points="1050,59 1056,59 1056,65" fill="none" stroke="#00b894" stroke-width="1.8" stroke-linecap="round" stroke-linejoin="round"/>
  <text x="1045" y="110" fill="#00b894" font-family="Inter, -apple-system, Arial, sans-serif" font-weight="700" font-size="10" text-anchor="middle" letter-spacing="1">04</text>
  <text x="1045" y="130" fill="#ffffff" font-family="Inter, -apple-system, Arial, sans-serif" font-weight="600" font-size="14" text-anchor="middle">Deliver</text>

  <!-- Bottom accent line -->
  <rect x="0" y="188" width="1128" height="3" fill="#00b894" fill-opacity="0.2"/>
</svg>
