<?xml version="1.0" encoding="UTF-8"?><svg id="Layer_1" xmlns="http://www.w3.org/2000/svg" viewBox="0 0 2834.65 1326.25"><defs><style>.cls-1{fill:#fff;}</style></defs><polygon class="cls-1" points="2412.44 643.18 2342.07 572.81 2215.94 698.94 2020.76 503.77 1945.08 579.45 2211.95 844.99 2412.44 643.18"/><path class="cls-1" d="M722.27,475.88c-46.47-47.8-112.85-29.21-164.64,22.57l-134.1,132.77,268.2,268.2,134.1-134.1c63.73-63.73,69.04-138.08,27.88-179.24-34.3-34.3-69.82-35.42-106.16-21.81,6.55-30.68,1.24-61.86-25.28-88.39ZM601.45,564.84c22.57-22.57,43.81-23.9,59.75-7.97,17.26,17.26,13.28,39.83-6.64,61.07l-50.52,52.23-54.19-54.51,51.6-50.83ZM770.07,708.23l-64.72,63.86-54.51-54.83,63.46-63.46c21.24-21.24,42.49-21.24,59.75-3.98,17.26,15.93,13.28,41.16-3.98,58.42Z"/><polygon class="cls-1" points="1039.26 795.53 662.86 1171.94 154.01 663.09 662.63 154.48 1039.7 531.54 1117.04 454.2 662.96 .13 0 663.09 662.72 1325.81 1116.13 872.4 1039.26 795.53"/><polygon class="cls-1" points="1408.69 416.14 1175.02 649.81 1246.71 720.18 1325.71 641.18 1522.88 838.35 1597.23 764 1400.06 566.83 1479.06 487.83 1408.69 416.14"/><polygon class="cls-1" points="1116.6 300.63 1193.6 377.63 1416.66 154.58 1793.73 531.65 1870.73 454.64 1416.66 .57 1116.6 300.63"/><polygon class="cls-1" points="1416 1172.26 1193.6 949.87 1116.6 1026.88 1416.03 1326.25 1871.47 870.95 1794.44 793.92 1416 1172.26"/><polygon class="cls-1" points="2171.55 0 1872.16 299.4 1949.09 376.33 2171.48 153.94 2680.63 663.09 2172.12 1171.6 1949.07 948.55 1872.06 1025.55 2172.12 1325.61 2834.65 663.09 2171.55 0"/></svg>