<svg version="1.1" id="Layer_1" xmlns:x="ns_extend;" xmlns:i="ns_ai;" xmlns:graph="ns_graphs;" xmlns="http://www.w3.org/2000/svg" xmlns:xlink="http://www.w3.org/1999/xlink" x="0px" y="0px" viewBox="0 0 194.2 53.9" style="enable-background:new 0 0 194.2 53.9;" xml:space="preserve">
 <style type="text/css">
  .st0{fill-rule:evenodd;clip-rule:evenodd;fill:#FFFFFF;}
	.st1{fill:#FFFFFF;}
 </style>
 <metadata>
  <sfw xmlns="ns_sfw;">
   <slices>
   </slices>
   <sliceSourceBounds bottomLeftOrigin="true" height="53.9" width="194.2" x="10.7" y="9.2">
   </sliceSourceBounds>
  </sfw>
 </metadata>
 <title>
  GCP_PrimaryWhite
 </title>
 <g>
  <path class="st0" d="M61.9,20.9v7.7c-1.2,0.4-2.5,0.6-3.7,0.5c-5.1,0-8.3-2.9-8.3-7.7s3.2-7.7,8.5-7.7c1.7-0.1,3.4,0.2,5.1,0.8
		l0.5,0.3l1.1-2.9l-0.5-0.3c-1.9-0.8-3.9-1.1-5.9-1.1c-8.8,0-12.8,5.6-12.8,10.9c-0.1,2.9,1.1,5.7,3.2,7.7c2.1,2.1,5.1,3.2,8.8,3.2
		c2.6,0,5.1-0.4,7.5-1.3h0.3v-10H61.9z">
  </path>
  <rect x="72.2" y="11" class="st1" width="3.7" height="21.1">
  </rect>
  <polygon class="st0" points="86.7,28.8 86.7,11 83,11 83,32 96.6,32 96.6,28.8 	">
  </polygon>
  <polygon class="st0" points="104.9,28.8 104.9,22.4 114.1,22.4 114.1,19.3 104.9,19.3 104.9,14.1 114.8,14.1 114.8,11 101.2,11 
		101.2,32 115.2,32 115.2,28.8 	">
  </polygon>
  <path class="st0" d="M129.1,15.2c0.3,0.5,2.1,5.8,2.7,7.4h-5.6C126.2,22.6,128.9,15.7,129.1,15.2 M131.1,11h-3.8l-8.1,21.1h3.8
		l2.4-6.3h7.5l2.4,6.3h4L131.1,11z">
  </path>
  <path class="st0" d="M160.8,13.4c-2.2-1.9-5.7-2.9-10-2.9h-7v3.2h7c3.2,0,5.7,0.8,7.3,2.1c1.2,1.4,1.9,3.2,1.9,5
		c0.1,2.2-0.7,4.2-2.2,5.8c-1.6,1.6-4.3,2.4-7.6,2.4h-2.7v-9.8h-3.8V32h0.3c1.9,0.2,3.8,0.3,5.7,0.3c4.6,0,8.4-1.3,10.8-3.5
		c2.2-2.1,3.4-5,3.2-8C163.8,18.1,162.7,15.4,160.8,13.4">
  </path>
  <path class="st0" d="M33.8,0h-0.3C5.5,2.6,2,21.3,11.1,27.4c-1.6,6.8,0,6.8,0,6.8c0.2-2,0.6-4.1,1.1-6.1
		c3.5-13.4,12.4-25,21.3-27.9l0,0C33.8,0.3,33.8,0.3,33.8,0">
  </path>
  <path class="st0" d="M32,4.7V4.4l-0.3,0.3c-2.2,4.5-3,10.8-4.6,15.5c-2.2,5.5-5.7,9.5-11.3,8.9v13.7c0,0-14.8-6.6-14.8-17.1V6
		l12.1-1.1l0,0c0.3,0,0.3,0,0.3-0.3H0v21c0,11.8,15.9,18.4,15.9,18.4S32,37.3,32,25.7V4.7z">
  </path>
  <path class="st1" d="M91.2,49.6c-0.9,0.9-2.1,1.4-3.3,1.4c-1.2,0-2.4-0.4-3.2-1.3c-0.8-0.9-1.2-2.1-1.2-3.3
		c-0.2-2.4,1.7-4.5,4.1-4.7c0.1,0,0.2,0,0.3,0c1.3,0,2.5,0.5,3.4,1.4l-1.2,1.2c-0.5-0.6-1.3-0.9-2.1-0.9c-1.5,0-2.7,1.2-2.7,2.7
		c0,0.1,0,0.2,0,0.2c-0.1,1.5,1,2.9,2.6,3c0.1,0,0.1,0,0.2,0c0.8,0,1.5-0.3,2-0.9L91.2,49.6z">
  </path>
  <path class="st1" d="M94.5,44.5v0.9c0.1-0.3,0.3-0.6,0.6-0.8c0.3-0.2,0.6-0.3,1-0.3h0.2v1.8h-0.4c-0.5,0-0.9,0.2-1.2,0.6
		c-0.2,0.3-0.3,0.7-0.2,1.1v3h-1.7v-6.3H94.5z">
  </path>
  <path class="st1" d="M99.2,48.1c0.1,0.9,1,1.5,1.9,1.4c0.5-0.1,0.9-0.4,1.2-0.8l1.6,0.4c-0.5,1.2-1.7,1.9-3,1.9
		c-1.8,0.1-3.3-1.3-3.4-3.1c0-0.1,0-0.2,0-0.3c-0.1-1.8,1.3-3.2,3-3.3c0.1,0,0.2,0,0.3,0c1.8-0.1,3.3,1.3,3.4,3.1c0,0.1,0,0.2,0,0.3
		v0.3H99.2z M102.3,47.1c-0.1-0.8-0.8-1.4-1.6-1.3c-0.8,0-1.5,0.5-1.5,1.3H102.3z">
  </path>
  <path class="st1" d="M110.7,44.5h1.7v6.2h-1.7v-0.9c-0.5,0.7-1.3,1.1-2.1,1.1c-1.7,0-3-1.3-3-3c0-0.1,0-0.2,0-0.3
		c-0.1-1.8,1.2-3.3,2.9-3.4c0.1,0,0.1,0,0.2,0c0.8,0,1.5,0.4,2,1V44.5z M107.3,47.7c-0.1,1,0.6,1.8,1.6,1.9c0,0,0,0,0,0
		c1-0.1,1.8-1,1.7-2c0,0,0,0,0,0c0.1-1-0.6-1.8-1.6-1.9c0,0-0.1,0-0.1,0c-1,0-1.7,0.8-1.7,1.8C107.3,47.6,107.3,47.6,107.3,47.7z">
  </path>
  <path class="st1" d="M116.5,48.9c0,0.3,0.1,0.4,0.5,0.4h0.3v1.4h-1.4c-0.8,0-1.2-0.4-1.1-1.2v-3.7H114v-1.4h0.7v-1.7h1.7v1.7h0.8
		v1.4h-0.8L116.5,48.9z">
  </path>
  <path class="st1" d="M120.8,42.7c-0.2,0.5-0.7,0.8-1.3,0.6c-0.3-0.1-0.5-0.3-0.6-0.6c-0.2-0.5,0.1-1.1,0.6-1.3
		c0.5-0.2,1.1,0.1,1.3,0.6C120.9,42.3,120.9,42.5,120.8,42.7z M120.8,50.7H119v-6.2h1.7V50.7z">
  </path>
  <path class="st1" d="M124.6,44.5v0.8c0.3-0.6,1-1,1.7-1c0.6,0,1.1,0.2,1.5,0.6c0.5,0.5,0.7,1.2,0.5,1.9v4h-1.7v-3.9
		c0-0.3,0-0.5-0.1-0.7c-0.2-0.3-0.5-0.4-0.8-0.4c-0.6,0-1.1,0.5-1.1,1.1c0,0,0,0.1,0,0.1v3.8h-1.7v-6.3H124.6z">
  </path>
  <path class="st1" d="M135.3,44.5h1.7v5.8c0.1,0.9-0.2,1.9-0.8,2.6c-0.7,0.6-1.6,1-2.6,1c-1.2,0-2.3-0.4-3.1-1.2l1.1-1.1
		c0.5,0.6,1.2,0.9,1.9,0.9c0.9,0.1,1.7-0.6,1.8-1.5c0-0.1,0-0.2,0-0.3v-0.6c-0.5,0.7-1.3,1.1-2.2,1.1c-1.7,0-3-1.3-3-3
		c0-0.1,0-0.2,0-0.3c-0.2-1.7,1.1-3.2,2.8-3.4c0.1,0,0.2,0,0.4,0c0.8,0,1.5,0.4,2,1L135.3,44.5z M131.9,47.6
		c-0.1,0.9,0.6,1.8,1.5,1.9c0.6,0.1,1.1-0.2,1.5-0.6c0.2-0.3,0.3-0.7,0.3-1.1c0-0.5-0.1-1.1-0.5-1.5c-0.3-0.3-0.7-0.5-1.2-0.5
		c-0.9,0-1.7,0.7-1.7,1.6C131.9,47.5,131.9,47.5,131.9,47.6z">
  </path>
  <path class="st1" d="M145,50.8h-1.9v-9h2.9c2.1,0,3.3,1,3.3,2.9c0.1,1.6-1.2,3-2.8,3c-0.1,0-0.3,0-0.4,0H145V50.8z M145.8,46.1
		c1.1,0,1.7-0.5,1.7-1.4c0-0.8-0.6-1.5-1.4-1.5c-0.1,0-0.1,0-0.2,0H145v2.9H145.8z">
  </path>
  <path class="st1" d="M157,47.7c0,1.8-1.5,3.3-3.3,3.3c0,0,0,0-0.1,0c-1.8,0-3.3-1.5-3.3-3.3s1.5-3.3,3.3-3.3
		c1.8-0.1,3.3,1.3,3.4,3.1C157,47.5,157,47.6,157,47.7z M151.9,47.7c-0.1,0.9,0.6,1.7,1.5,1.8c0.9,0.1,1.7-0.6,1.8-1.5
		c0-0.1,0-0.2,0-0.3c0.1-0.9-0.5-1.7-1.4-1.8c-0.1,0-0.2,0-0.3,0c-0.9,0-1.7,0.7-1.7,1.6C151.9,47.5,151.9,47.6,151.9,47.7z">
  </path>
  <path class="st1" d="M161.5,46.3v-0.1c0-0.4-0.3-0.6-0.8-0.6s-0.7,0.2-0.7,0.6c0,0.2,0.1,0.3,0.2,0.4c0.2,0.2,0.2,0.2,1.1,0.4
		c1.4,0.4,2,1,2,2c0,1.2-1,2-2.4,2c-1.2,0.2-2.3-0.6-2.4-1.8c0-0.1,0-0.1,0-0.2h1.6c0.1,0.5,0.3,0.8,0.8,0.8c0.3,0,0.6-0.2,0.7-0.5
		c0,0,0,0,0-0.1c0-0.4-0.2-0.6-1.2-0.8c-1.4-0.4-2-1-2-2c0-1.2,1-2,2.4-2c1.1-0.2,2.2,0.6,2.3,1.8c0,0.1,0,0.2,0,0.2L161.5,46.3z">
  </path>
  <path class="st1" d="M167.9,46.3v-0.1c0-0.4-0.4-0.7-0.8-0.6c0,0,0,0,0,0c-0.4,0-0.7,0.2-0.7,0.6c0,0.2,0.1,0.3,0.2,0.4
		c0.2,0.2,0.2,0.2,1.1,0.4c1.4,0.4,2,1,2,2c0,1.2-1,2-2.4,2c-1.2,0.2-2.3-0.6-2.4-1.8c0-0.1,0-0.1,0-0.2h1.6
		c0.1,0.5,0.3,0.8,0.8,0.8c0.3,0,0.6-0.2,0.7-0.5c0,0,0,0,0-0.1c0-0.4-0.2-0.6-1.2-0.8c-1.4-0.4-2-1-2-2c0-1.2,1-2,2.4-2
		c1.1-0.2,2.1,0.6,2.3,1.6c0,0.1,0,0.2,0,0.4L167.9,46.3z">
  </path>
  <path class="st1" d="M173.2,42.7c-0.2,0.5-0.7,0.8-1.3,0.7c-0.3-0.1-0.6-0.3-0.7-0.7c-0.2-0.5,0.1-1.1,0.7-1.3s1.1,0.1,1.3,0.7
		C173.3,42.3,173.3,42.5,173.2,42.7z M173.1,50.7h-1.7v-6.2h1.7V50.7z">
  </path>
  <path class="st1" d="M177,50.8h-1.7v-9h1.7v3.5c0.5-0.6,1.2-1,2-1c1.7,0,3.1,1.4,3.2,3.1c0,0.1,0,0.2,0,0.2c0.2,1.6-1,3.1-2.7,3.3
		c-0.1,0-0.3,0-0.4,0c-0.8,0.1-1.6-0.3-2.1-1L177,50.8z M177,47.7c-0.1,0.9,0.6,1.8,1.5,1.9s1.8-0.6,1.9-1.5c0-0.1,0-0.2,0-0.4
		c0.1-1-0.6-1.9-1.6-1.9c0,0,0,0,0,0C177.7,45.8,176.9,46.6,177,47.7C176.9,47.7,176.9,47.7,177,47.7L177,47.7z">
  </path>
  <path class="st1" d="M184,50.8v-9h1.7v9H184z">
  </path>
  <path class="st1" d="M189.3,48.1c0.1,0.9,1,1.5,1.9,1.4c0.5-0.1,0.9-0.4,1.2-0.8l1.6,0.4c-0.6,1.2-1.7,1.9-3,1.9
		c-1.8,0.1-3.3-1.3-3.4-3.1c0-0.1,0-0.2,0-0.3c-0.1-1.7,1.3-3.2,3-3.3c0.1,0,0.2,0,0.3,0c1.8-0.1,3.3,1.3,3.4,3.1c0,0.1,0,0.2,0,0.3
		v0.3H189.3z M192.4,47.1c-0.1-0.8-0.8-1.4-1.6-1.3c-0.8,0-1.5,0.5-1.5,1.3H192.4z">
  </path>
 </g>
</svg>