<svg xmlns="http://www.w3.org/2000/svg" width="800" height="109" viewBox="0 0 800 109" fill="none">
<path fill-rule="evenodd" clip-rule="evenodd" d="M743.653 32.8497L743.651 32.8503V72.4297L687.774 56.9897V17.4704L743.651 1.86035L799.97 17.4654L799.99 17.46H800V38.42L771.077 46.31C769.678 46.69 768.709 47.94 768.709 49.36V65.51L743.653 72.42V32.8497ZM743.651 78.8897C743.355 78.8897 743.059 78.8497 742.773 78.7697L687.774 63.5697V84.6597L743.643 100.038V100.05L799.98 84.67V45.01L799.99 45L775.169 51.77V67.92C775.169 69.34 774.21 70.58 772.811 70.97L744.521 78.78C744.238 78.8593 743.944 78.8993 743.651 78.9V78.8897Z" fill="#FFf"/>
<path d="M39.1192 90.89C13.9923 90.89 3.93948 84.24 0 69.33H30.6993C30.6993 74.23 35.4553 74.44 39.803 74.44C45.9163 74.44 47.6819 71.99 47.6819 68.53V68C47.6819 65.34 46.7328 63.61 39.803 63.34L25.1371 62.81C5.16418 62.01 1.49006 54.43 1.49006 41.78V40.72C1.49006 24.35 15.4823 17.7 38.3027 17.7H39.2519C62.7458 17.7 74.2989 23.96 76.1972 39.26H45.6408C45.6408 35.09 41.9769 34.15 37.8945 34.15C32.1894 34.15 30.6993 36.6 30.6993 39.79V40.32C30.6993 42.98 31.6485 44.71 38.5783 44.98L53.2442 45.51C73.2069 46.31 76.881 53.89 76.881 66.54V67.74C76.881 84.11 65.0626 90.9 40.0683 90.9H39.1192V90.89Z" fill="#fff"/>
<path d="M130.127 89.56V50.03C130.127 41.11 128.229 39.92 120.891 39.92C113.553 39.92 111.654 42.71 111.654 51.9V89.56H82.588V19.02H111.654V30.2H112.471C115.461 21.28 121.707 17.69 134.199 17.69C149.549 17.69 159.051 21.82 159.051 41.25V89.56H130.117H130.127Z" fill="#FFf"/>
<path d="M211.895 89.56V82.11H211.079C208.364 87.57 203.476 90.89 190.3 90.89C174.409 90.89 163.948 84.5 163.948 68.66V67.99C163.948 54.02 171.143 47.49 189.351 46.7L211.487 45.5V43.64C211.487 37.38 209.181 34.61 202.935 34.61C197.23 34.61 194.658 38.3 194.239 41.62L165.714 41.94C165.714 40.64 165.897 39.35 166.265 38.1C170.5 23.76 181.268 17.69 203.067 17.69H203.751C229.154 17.69 240.421 23.41 240.421 46.97V89.56H211.895ZM200.618 73.86C208.905 73.86 211.487 69.66 211.487 62.31V59.76L199.128 60.36C194.515 60.66 192.412 62.01 192.412 66.21V67.26C192.412 72.36 195.995 73.86 200.618 73.86Z" fill="#FFf"/>
<path d="M275.191 19.02V27.94H276.14C279.263 21.29 285.917 17.69 295.021 17.69H295.705C316.759 17.69 325.72 28.07 325.72 53.36V55.22C325.72 80.51 316.759 90.89 295.705 90.89H295.021C285.917 90.89 279.263 87.16 276.14 80.64H275.191V108.58H246.257V19.02H275.191ZM275.191 53.89V54.82C275.191 65.07 276.14 68.93 286.06 68.93C295.98 68.93 296.654 65.07 296.654 54.82V53.89C296.654 43.51 295.97 39.65 286.06 39.65C276.15 39.65 275.191 43.51 275.191 53.89Z" fill="#FFf"/>
<path d="M381.416 89.56V80.64H380.467C377.344 87.29 370.689 90.89 361.586 90.89H360.902C339.847 90.89 330.886 80.51 330.886 55.22V53.36C330.886 28.07 339.847 17.69 360.902 17.69H361.586C370.689 17.69 377.344 21.42 380.467 27.94H381.416V0H410.349V89.56H381.416ZM381.416 54.69V53.76C381.416 43.51 380.467 39.65 370.546 39.65C360.626 39.65 359.953 43.51 359.953 53.76V54.69C359.953 65.07 360.637 68.93 370.546 68.93C380.456 68.93 381.416 65.07 381.416 54.69Z" fill="#FFf"/>
<path d="M453.817 90.89C427.332 90.89 415.922 80.24 415.922 55.22V53.36C415.922 28.34 427.332 17.69 453.949 17.69H457.613C483.965 17.69 495.375 28.34 495.375 53.36V55.22C495.375 80.24 483.965 90.89 457.481 90.89H453.817ZM466.441 54.69V53.89C466.441 42.05 464.543 39.65 455.572 39.65C446.601 39.65 444.978 42.05 444.978 53.89V54.69C444.978 66.53 446.744 68.93 455.572 68.93C464.4 68.93 466.441 66.53 466.441 54.69Z" fill="#FFf"/>
<path d="M537.892 90.89C516.021 90.89 500.671 83.3 500.671 55.22V53.36C500.671 25.28 516.021 17.69 537.892 17.69H539.657C562.611 17.69 573.347 27.41 576.195 44.57H547.536C546.046 40.98 544.281 39.65 538.708 39.65C530.962 39.65 529.747 44.04 529.747 52.96V55.62C529.747 64.54 530.972 68.93 538.708 68.93C544.281 68.93 546.046 67.6 547.536 64.01H576.195C573.347 81.18 562.611 90.89 539.657 90.89H537.892Z" fill="#FFf"/>
<path d="M620.201 90.8902C595.075 90.8902 585.022 84.2402 581.082 69.3302H611.782C611.782 74.2302 616.538 74.4402 620.885 74.4402C626.999 74.4402 628.764 71.9902 628.764 68.5302V68.0002C628.764 65.3402 627.815 63.6102 620.885 63.3402L606.219 62.8102C586.257 62.0102 582.583 54.4302 582.583 41.7802V40.7202C582.583 24.3502 596.575 17.7002 619.395 17.7002H620.344C643.838 17.7002 655.391 23.9602 657.29 39.2602H626.733C626.733 35.0902 623.069 34.1502 618.987 34.1502C613.282 34.1502 611.792 36.6002 611.792 39.7902V40.3202C611.792 42.9802 612.741 44.7102 619.671 44.9802L634.337 45.5102C654.299 46.3102 657.974 53.8902 657.974 66.5402V67.7402C657.974 84.1102 646.155 90.9002 621.161 90.9002H620.212L620.201 90.8902Z" fill="#FFf"/>
</svg>