<svg version="1.1" id="Layer_1" xmlns="http://www.w3.org/2000/svg" xmlns:xlink="http://www.w3.org/1999/xlink" x="0px" y="0px" viewBox="-525 141.9 307 117.2" style="enable-background:new -525 141.9 307 117.2;" xml:space="preserve">
 <style type="text/css">
  .st0{fill:#FFFFFF;}
	.st1{fill:#FFFFFF;}
 </style>
 <title>
  logo-white
 </title>
 <g>
  <path class="st0" d="M-517.5,212.8c-2.4-7.8-3.3-9.9-7.5-9.9v-2.4c3.7,0.3,7.4,0.4,11,0.4c3.6,0,7-0.1,10.4-0.4v2.4
		c-1.6,0.3-3.5,0.7-3.5,2.9c0.3,1.3,0.6,2.6,1,3.9l9.2,30.8h0.2l6.5-21.5l-3-9.2c-1.8-5.4-3.1-6.7-6.1-6.9v-2.4
		c3.6,0.3,7.2,0.4,10.8,0.4c3.6,0,7.3-0.1,10.9-0.4v2.4c-1.4,0-4.7,0.2-4.7,2.6c0.3,1.6,0.6,3.1,1,4.6l8,30.4h0.2l7-24.2
		c1.2-3.5,2-7.1,2.6-10.8c0-2.2-3-2.6-4.4-2.6v-2.4c2.5,0.3,4.9,0.4,7.4,0.4c2.3,0,4.7-0.1,7-0.4v2.3c-3.6,0.5-4.2,1.7-4.7,3.1
		c-0.9,2.5-3.5,10.1-7.5,24.1l-8.4,28.5h-5.2l-9-33.3l0,0l-9.6,33.3h-5.2L-517.5,212.8z">
  </path>
  <path class="st0" d="M-455,231.8c0-4,1.3-9.6,6.1-9.6c4.8,0,5.4,5.2,5.6,9.6H-455z M-433.4,235.2c0-9.5-5-16.4-13.8-16.4
		c-11.1,0-16,9.9-16,20.6c0,10,4.8,19.6,15.1,19.6c9,0,13.7-6.3,16.1-14.4l-1.8-0.6c-2.1,3.5-5.9,5.7-10,5.7
		c-7.1,0-10.9-7.6-11.2-14.5L-433.4,235.2L-433.4,235.2z">
  </path>
  <path class="st0" d="M-429,244.5c0.5,5.6,5.1,9.9,10.7,10.1c2.4,0,5.7-1,5.7-4.2c0-7.1-18.8-7.2-18.8-20.1
		c-0.3-6,4.4-11.1,10.5-11.4c0.3,0,0.6,0,0.9,0c1.6,0,3.2,0.3,4.7,0.7c1.3,0.4,2.6,0.7,4,0.7c0.8,0,1.7-0.2,2.4-0.5
		c0.2,3.4,0.2,6.8,0.5,10.1h-1.8c-0.7-4.5-4.4-7.9-8.9-8.1c-2.5-0.2-4.7,1.7-4.9,4.3c0,0.2,0,0.4,0,0.5c0,6.6,17.1,6.4,17.1,19.4
		c0,7.8-4.5,13.2-12.1,13.2c-5.2,0-8-2.2-12-2.4c0.2-4.1,0.2-8.1,0.2-12.1L-429,244.5z">
  </path>
  <path class="st0" d="M-389,230.5c0-1.6,1-1.6,2.4-1.6c7.5,0,10.6,6.1,10.6,13.6c0,7.5-2.3,12.1-8.9,12.1c-2.6,0-4.1-0.4-4.1-3.4
		v-20.8V230.5z M-401.2,249.9c0,4.5-0.6,5.2-5.2,5.7v2.4c5-0.4,9.7-0.4,11.8-0.4c4.1,0,9.2,0.4,12.1,0.4c11.6,0,19.6-4.9,19.6-16.1
		c0-11.9-8.1-14.2-17.5-15v-0.2c10.6-1.5,14.8-5.6,14.8-13c0-10.7-8.7-13.3-16.9-13.3c-3.3,0-6.5,0.4-10.6,0.4
		c-4.1,0-8.1,0-13.3-0.4v2.4c4.9,0.4,5.2,1.7,5.2,6.2L-401.2,249.9L-401.2,249.9z M-389,205.6c0-1.8,1.2-1.8,2.7-1.8
		c6.4,0,8,5.7,8,11.7c0,6-2.4,10-8.2,10c-1.8,0-2.6,0-2.6-1.6L-389,205.6L-389,205.6z">
  </path>
  <path class="st0" d="M-339.9,249.2c-1.4,1.4-3.2,2.3-5.2,2.6c-2.6,0-4.1-2.8-4.1-5.4c0-5.2,5.2-8.1,9.3-9.2V249.2L-339.9,249.2z
		 M-330.4,231.6c0-10-5.6-12.8-13.7-12.8c-6.6,0-13.6,2.8-13.6,11c0,3.6,1.9,3.6,4.7,3.6c2.7,0,4.6-0.5,4.8-3.9c0.3-4,0-7.4,4.1-7.4
		c3,0,4.2,1.8,4.2,5.2v7c-7.8,1.1-20,3.7-20,14.5c0,5.8,3.2,10.2,8.7,10.2c4.6,0,8.5-3.7,11.5-7.2c0,3.5,1,7.2,4.8,7.2
		c2.8,0,5.2-1.8,8.2-4.5V252c-0.7,0.7-1.6,1.2-2.6,1.4c-0.9,0-0.9-1.5-0.9-2.6L-330.4,231.6L-330.4,231.6z">
  </path>
  <path class="st0" d="M-312.4,252c0,3.6,2,3.6,3.8,3.6v2.4c-3-0.3-6-0.5-9-0.4c-2.9-0.1-5.7,0-8.6,0.4v-2.4c1.9,0,3.9,0,3.9-3.6
		v-21.8c0-4.3-0.2-4.9-4.1-4.9v-2.4c4-0.6,7.8-2,11.3-4h2.1v7.1c3.5-3.6,7.4-7.2,11.9-7.1c7.8,0,10.1,5.2,10.1,12.7V252
		c0,3.6,2,3.6,3.9,3.7v2.4c-3-0.3-6-0.4-9.1-0.4c-2.8-0.1-5.7,0-8.5,0.4v-2.4c1.8,0,3.8,0,3.8-3.7v-20.1c0-6.1-3.7-6.7-5.5-6.7
		c-2.2,0.1-4.3,0.9-5.9,2.4v24.3L-312.4,252z">
  </path>
  <path class="st0" d="M-256.7,244.6c-2.4,8-7.1,14.4-16.1,14.4c-10.4,0-15.1-9.6-15.1-19.6c0-11.9,7.5-20.6,16-20.6
		c7,0,13.8,2,13.8,10.2c0,3.6-1.3,4.7-4.7,4.7s-5.7,0-5.7-4.1c0-6.8-1.1-7.4-4.6-7.4s-6.3,3.2-6.3,11.8s3.2,15.6,10.7,15.6
		c4.1-0.1,7.9-2.2,10-5.7L-256.7,244.6z">
  </path>
  <path class="st0" d="M-227.5,240.5c0,5.2-0.8,12.1-6.8,12.1c-6.9,0-10.1-10.8-10.1-17.7c0-4.9,1.8-12.1,7.8-12.1
		C-229.8,222.8-227.5,235-227.5,240.5z M-218,238.8c0-11.9-6.2-20-17.5-20c-10.6,0-18.4,9.2-18.4,20.2c0,11.9,6.2,20,17.5,20
		C-225.2,259-218,250.9-218,238.8z">
  </path>
  <polygon class="st1" points="-355.9,143 -355.9,162.4 -332.6,186.4 -309.6,162.6 -286.3,186.6 -263.2,162.3 -263.2,142.7 
		-286.5,166.4 -309.4,141.9 -332.9,166 	">
  </polygon>
  <polygon class="st1" points="-355.9,166.3 -355.9,185.6 -332.6,209.6 -309.6,185.8 -286.3,209.9 -263.2,185.5 -263.2,166 
		-286.5,189.6 -309.4,165.2 -332.9,189.2 	">
  </polygon>
  <path class="st1" d="M-257.5,144.5h0.5c0.5,0,0.8,0.4,0.8,1.1c0,0.7-0.2,1.2-0.8,1.2h-0.4v-2.3H-257.5z M-254.8,149.3v-0.1
		c-0.3-0.3-0.6-0.7-0.8-1.1l-0.7-1.1c0.6-0.2,1-0.7,1-1.4c0-0.7-0.5-1.3-1.2-1.3c-0.1,0-0.1,0-0.2,0h-2.4v0.2c0.5,0,0.5,0.2,0.5,0.6
		v3.4c0,0.4,0,0.5-0.5,0.5v0.3h2.1V149c-0.6,0-0.5,0-0.5-0.5v-1.4h0.5c0.7,1.1,1,2.2,1.4,2.2L-254.8,149.3z M-252.8,146.9
		c0.2-2.3-1.6-4.4-3.9-4.6s-4.4,1.6-4.6,3.9c0,0.2,0,0.4,0,0.7c-0.2,2.3,1.6,4.4,3.9,4.6s4.4-1.6,4.6-3.9
		C-252.8,147.3-252.8,147.1-252.8,146.9z M-253.7,146.9c0.3,1.9-0.9,3.6-2.8,3.9s-3.6-0.9-3.9-2.8c-0.1-0.4-0.1-0.8,0-1.2
		c-0.3-1.9,0.9-3.6,2.8-3.9s3.6,0.9,3.9,2.8C-253.7,146.1-253.7,146.5-253.7,146.9z">
  </path>
 </g>
</svg>